<?xml version="1.0" encoding="UTF-8" standalone="no"?>
<!-- Created with Inkscape (http://www.inkscape.org/) -->

<svg
   xmlns:dc="http://purl.org/dc/elements/1.1/"
   xmlns:cc="http://creativecommons.org/ns#"
   xmlns:rdf="http://www.w3.org/1999/02/22-rdf-syntax-ns#"
   xmlns:svg="http://www.w3.org/2000/svg"
   xmlns="http://www.w3.org/2000/svg"
   xmlns:sodipodi="http://sodipodi.sourceforge.net/DTD/sodipodi-0.dtd"
   xmlns:inkscape="http://www.inkscape.org/namespaces/inkscape"
   width="13"
   height="18"
   viewBox="0 0 12 16"
   version="1.1"
   id="SVGRoot"
   inkscape:version="0.92.4 (5da689c313, 2019-01-14)"
   sodipodi:docname="light.svg">
  <defs
     id="defs2366" />
  <sodipodi:namedview
     id="base"
     pagecolor="#ffffff"
     bordercolor="#666666"
     borderopacity="1.0"
     inkscape:pageopacity="0.0"
     inkscape:pageshadow="2"
     inkscape:zoom="42.666667"
     inkscape:cx="1.4296876"
     inkscape:cy="8.9375"
     inkscape:document-units="px"
     inkscape:current-layer="layer1"
     showgrid="false"
     inkscape:window-width="1850"
     inkscape:window-height="1009"
     inkscape:window-x="70"
     inkscape:window-y="34"
     inkscape:window-maximized="1" />
  <metadata
     id="metadata2369">
    <rdf:RDF>
      <cc:Work
         rdf:about="">
        <dc:format>image/svg+xml</dc:format>
        <dc:type
           rdf:resource="http://purl.org/dc/dcmitype/StillImage" />
        <dc:title />
      </cc:Work>
    </rdf:RDF>
  </metadata>
  <g
     inkscape:label="Layer 1"
     inkscape:groupmode="layer"
     id="layer1">
    <g
       transform="matrix(0.9204595,0,0,0.9204595,-878.7586,-325.47765)"
       id="g915">
      <g
         id="g913">
        <circle
           class="b"
           cx="2.5"
           cy="2.5"
           r="2.5"
           transform="translate(959,365)"
           id="circle903"
           style="fill:#27ad58" />
        <circle
           class="c"
           cx="2.5"
           cy="2.5"
           r="2.5"
           transform="translate(959,360)"
           id="circle905"
           style="fill:#e8bf29" />
        <circle
           class="d"
           cx="2.5"
           cy="2.5"
           r="2.5"
           transform="translate(959,354)"
           id="circle907"
           style="fill:#dd0c29" />
        <g
           transform="translate(955,353.29)"
           id="g911">
          <path
             class="e"
             d="M 868.048,101.829 H 866 a 0.3,0.3 0 0 0 -0.3,0.32 c 0.073,1.029 2.077,2.892 2.552,3.32 a 0.3,0.3 0 0 1 0.1,0.225 v 0.183 a 1.276,1.276 0 0 0 1.276,1.276 h 4.583 a 1.276,1.276 0 0 0 1.276,-1.276 v -0.183 a 0.3,0.3 0 0 1 0.1,-0.225 c 0.475,-0.428 2.479,-2.291 2.552,-3.32 a 0.3,0.3 0 0 0 -0.3,-0.32 h -2.047 a 0.3,0.3 0 0 1 -0.3,-0.3 v -1.372 a 0.3,0.3 0 0 1 0.1,-0.225 c 0.475,-0.428 2.479,-2.291 2.552,-3.32 a 0.3,0.3 0 0 0 -0.3,-0.32 h -2.047 a 0.3,0.3 0 0 1 -0.3,-0.3 v -1.379 a 0.3,0.3 0 0 1 0.1,-0.225 c 0.475,-0.428 2.479,-2.291 2.552,-3.32 a 0.3,0.3 0 0 0 -0.3,-0.32 h -2.047 a 0.3,0.3 0 0 1 -0.3,-0.3 v -0.016 a 1.276,1.276 0 0 0 -1.276,-1.276 h -4.584 a 1.276,1.276 0 0 0 -1.276,1.276 v 0.016 a 0.3,0.3 0 0 1 -0.3,0.3 H 866 a 0.3,0.3 0 0 0 -0.3,0.32 c 0.073,1.029 2.077,2.892 2.552,3.32 a 0.3,0.3 0 0 1 0.1,0.225 v 1.372 a 0.3,0.3 0 0 1 -0.3,0.3 H 866 a 0.3,0.3 0 0 0 -0.3,0.32 c 0.073,1.029 2.077,2.892 2.552,3.32 a 0.3,0.3 0 0 1 0.1,0.225 v 1.372 a 0.3,0.3 0 0 1 -0.304,0.307 z m 3.882,-11.138 a 2,2 0 1 1 -2,2 2,2 0 0 1 2,-2 z m 0,5.473 a 2,2 0 1 1 -2,2 2,2 0 0 1 2,-2 z m 0,5.473 a 2,2 0 1 1 -2,2 2,2 0 0 1 2,-2 z"
             transform="translate(-865.698,-89.153)"
             id="path909"
             inkscape:connector-curvature="0"
             style="fill:#333333" />
        </g>
      </g>
    </g>
  </g>
</svg>
