<svg xmlns="http://www.w3.org/2000/svg" xmlns:xlink="http://www.w3.org/1999/xlink" width="56" height="64.444" viewBox="0 0 56 64.444"><defs><style>.a{fill:#d9eaf5;}.b{fill:#fff;}.c{fill:#333;}.d,.e{stroke:none;}.e{fill:#00abe7;}.f{filter:url(#a);}</style><filter id="a" x="0" y="0" width="56" height="64.444" filterUnits="userSpaceOnUse"><feOffset dy="3" input="SourceAlpha"/><feGaussianBlur stdDeviation="3" result="b"/><feFlood flood-opacity="0.251"/><feComposite operator="in" in2="b"/><feComposite in="SourceGraphic"/></filter></defs><g transform="translate(-1039.162 -342.197)"><g class="f" transform="matrix(1, 0, 0, 1, 1039.16, 342.2)"><g class="a" transform="translate(-44.45 -66.14)"><path class="d" d="M 72.44803619384766 116.9813919067383 C 69.81655120849609 115.4021301269531 67.30515289306641 113.583740234375 64.98101043701172 111.5746078491211 C 62.88845062255859 109.7653579711914 61.01649856567383 107.7004699707031 59.41726684570312 105.4374618530273 C 57.97285079956055 103.3753433227539 56.84737396240234 101.1122436523438 56.07230377197266 98.71139526367188 C 55.31853866577148 96.31343841552734 54.9403076171875 93.82209014892578 54.94816207885742 91.30659484863281 L 54.94816970825195 91.29428100585938 C 54.9465217590332 86.57787322998047 56.76589965820312 82.14409637451172 60.07118225097656 78.80917358398438 C 63.37322998046875 75.47749328613281 67.76376342773438 73.641357421875 72.4339599609375 73.63898468017578 L 72.45944213867188 73.63898468017578 C 74.76779174804688 73.63898468017578 77.0166015625 74.09074401855469 79.14640045166016 74.98170471191406 C 81.27699279785156 75.87300109863281 83.18340301513672 77.15986633300781 84.81266784667969 78.80654144287109 L 84.94595336914062 78.94124603271484 C 86.52105712890625 80.55816650390625 87.75589752197266 82.43983459472656 88.61758422851562 84.53675079345703 C 89.50312042236328 86.69174194335938 89.95072174072266 88.96727752685547 89.94792175292969 91.30011749267578 L 89.94792175292969 91.30336761474609 L 89.94792938232422 91.30660247802734 C 89.95580291748047 93.82185363769531 89.57763671875 96.31299591064453 88.82394409179688 98.71092224121094 C 88.04896545410156 101.1126403808594 86.92330169677734 103.3760452270508 85.47807312011719 105.4387054443359 C 83.87884521484375 107.7016525268555 82.00715637207031 109.7661209106445 79.91509246826172 111.574592590332 C 77.59097290039062 113.5834503173828 75.07957458496094 115.4018402099609 72.44803619384766 116.9813919067383 Z"/><path class="e" d="M 72.43472290039062 75.13898468017578 C 68.16743469238281 75.14115142822266 64.15499114990234 76.81958770751953 61.13655853271484 79.86508178710938 C 58.1116943359375 82.91708374023438 56.44666290283203 86.97568511962891 56.44817352294922 91.29428100585938 L 56.44817352294922 91.30191802978516 L 56.44817352294922 91.30660247802734 L 56.44815826416016 91.31129455566406 C 56.44078063964844 93.67081451416016 56.79524230957031 96.00749206542969 57.50177764892578 98.25685882568359 C 58.23054504394531 100.5121536254883 59.28786468505859 102.6377868652344 60.64449310302734 104.5749664306641 C 62.17317199707031 106.7375869750977 63.96229553222656 108.7108840942383 65.96198272705078 110.4398345947266 C 67.99281311035156 112.1954193115234 70.17050933837891 113.8010330200195 72.44798278808594 115.2227020263672 C 74.72556304931641 113.80078125 76.90333557128906 112.1951446533203 78.93412780761719 110.439811706543 C 80.9339599609375 108.7110824584961 82.72322082519531 106.7376022338867 84.25221252441406 104.5742340087891 C 85.60877227783203 102.637321472168 86.66600036621094 100.5116806030273 87.39437866210938 98.25663757324219 C 88.10084533691406 96.00735473632812 88.455322265625 93.67063140869141 88.44793701171875 91.31130218505859 L 88.44790649414062 91.30481719970703 L 88.44792175292969 91.29832458496094 C 88.45048522949219 89.16262817382812 88.04075622558594 87.07952117919922 87.23014831542969 85.10688781738281 C 86.44252777099609 83.190185546875 85.31430053710938 81.47017669677734 83.87559509277344 79.99213409423828 L 83.74639129638672 79.86155700683594 C 82.25707244873047 78.3563232421875 80.5146484375 77.18010711669922 78.56752777099609 76.36558532714844 C 76.6220703125 75.5517578125 74.56797790527344 75.13906097412109 72.45944213867188 75.13898468017578 L 72.43472290039062 75.13898468017578 M 72.46243286132812 72.13898468017578 C 77.49629974365234 72.13916778564453 82.32400512695312 74.15859985351562 85.87895202636719 77.75153350830078 L 85.87962341308594 77.75153350830078 C 89.45014953613281 81.34160614013672 91.45401000976562 86.21823120117188 91.44792175292969 91.30191802978516 C 91.45626831054688 93.97007751464844 91.0531005859375 96.62340545654297 90.25302124023438 99.16673278808594 C 89.43252563476562 101.7111053466797 88.23643493652344 104.1163864135742 86.70512390136719 106.3014678955078 C 85.03370666503906 108.6670837402344 83.08308410644531 110.8188018798828 80.89604187011719 112.7093734741211 C 78.44479370117188 114.828125 75.81340789794922 116.7254867553711 73.03239440917969 118.3795928955078 C 72.86922454833984 118.5112228393555 72.66644287109375 118.5832214355469 72.45729827880859 118.5834732055664 L 72.44009399414062 118.5834732055664 C 72.23070526123047 118.5833435058594 72.02740478515625 118.5115127563477 71.86370849609375 118.3795928955078 C 69.08267211914062 116.7257537841797 66.45127868652344 114.8283843994141 64.00003814697266 112.7093734741211 C 61.81327819824219 110.8186721801758 59.86251831054688 108.6669540405273 58.19107818603516 106.3014678955078 C 56.659912109375 104.1162414550781 55.46382141113281 101.7109832763672 54.64305877685547 99.16673278808594 C 53.84297943115234 96.62340545654297 53.43983459472656 93.97007751464844 53.44817352294922 91.30191802978516 L 53.44817352294922 91.29428100585938 C 53.4444580078125 80.71995544433594 61.94386291503906 72.14431762695312 72.43320465087891 72.13898468017578 L 72.45944213867188 72.13898468017578 C 72.46067047119141 72.13898468017578 72.46120452880859 72.13898468017578 72.46243286132812 72.13898468017578 Z"/></g></g><g transform="matrix(0.985, 0.174, -0.174, 0.985, 1059.023, 358.32)"><path class="b" d="M0,5.273,3.137,16.288l4.339-.868,4.739-2.6,2.946-1.135s2.995-.188,2.928-.461S14.871,0,14.871,0L11.548.8,9.045,2l-4.239,2.2-2.786,1Z" transform="translate(0.607 0.047)"/><path class="c" d="M19.282,11.776Q17.806,6.327,16.329.878a.992.992,0,0,0-1-.857C9.8-.38,6.166,5.13.633,4.729.2,4.676-.084,4.9.023,5.3q1.476,5.449,2.953,10.9a1.094,1.094,0,0,0,1,.857c5.533.4,9.166-5.109,14.7-4.708C19.108,12.4,19.388,12.17,19.282,11.776ZM14.94,1.392,15.754,4.4a9.986,9.986,0,0,0-3.28.681L11.66,2.073A9.986,9.986,0,0,1,14.94,1.392ZM3.538,12.629q-.463-1.708-.926-3.417a9.88,9.88,0,0,0,3.445-.749L5.242,5.457a33.185,33.185,0,0,0,3.206-1.7L9.263,6.76a33.2,33.2,0,0,1-3.206,1.7l.926,3.417A9.883,9.883,0,0,1,3.538,12.629Zm4.271,2.3L6.983,11.88a32.87,32.87,0,0,0,3.183-1.691l.827,3.051A32.846,32.846,0,0,1,7.809,14.931Zm2.379-4.755L9.263,6.759A29.8,29.8,0,0,1,12.475,5.08L13.4,8.5A29.853,29.853,0,0,0,10.188,10.176Zm4.058,1.364-.827-3.051a9.968,9.968,0,0,1,3.26-.673l.827,3.051A9.968,9.968,0,0,0,14.246,11.54Z" transform="translate(0 0)"/></g></g></svg>