<svg xmlns="http://www.w3.org/2000/svg" width="60" height="60" viewBox="0 0 60 60"><defs><style>.a{fill:#0070b4;}</style></defs><g transform="translate(-141.8 -141.8)"><path class="a" d="M201.8,171.8a30,30,0,1,0-30,30,30,30,0,0,0,30-30m-53.754-13.063h14.608l-12.047,29.788H193.1a27.093,27.093,0,0,1-45.053-29.788m41.115,12.957v-3.663h-7.347v-9.273h13.7a27.178,27.178,0,0,1,0,26.126H160.833L172.859,155.1H150.48a27.128,27.128,0,0,1,42.639,0H173.748v27.1h8.088v-10.5Z" transform="translate(0 0)"/></g></svg>