<svg xmlns="http://www.w3.org/2000/svg" width="55.118" height="55.118" viewBox="0 0 55.118 55.118"><defs><style>.a{fill:#fff;}</style></defs><path class="a" d="M196.918,169.359a27.559,27.559,0,1,0-27.559,27.559,27.561,27.561,0,0,0,27.559-27.559m-49.38-12h13.42l-11.066,27.364h39.033a24.888,24.888,0,0,1-41.387-27.364m37.769,11.9V165.9h-6.749v-8.518h12.583a24.966,24.966,0,0,1,0,24H159.284l11.047-27.364H149.774a24.921,24.921,0,0,1,39.17,0h-17.8v24.894h7.429v-9.647Z" transform="translate(-141.8 -141.8)"/></svg>