<svg xmlns="http://www.w3.org/2000/svg" width="30" height="63.87" viewBox="0 0 30 63.87"><defs><style>.a{fill:#7fd5f3;}.b{fill:#00abe7;}.c{fill:#e2dfe6;}.d{fill:#fff;}.e{fill:#333;}.f{fill:#dd0c29;}</style></defs><g transform="translate(-820.595 -59.738)"><path class="a" d="M824.663,80.7a12.807,12.807,0,0,0-.051-1.457l-.135-5.728c-.344-3.725.526-8.5,3.164-11.149,2.267-2.273,5.794-2.625,9.253-2.625h1.5c3.46,0,6.986.352,9.253,2.625,2.638,2.645,3.639,7.424,3.295,11.149l-.266,5.728a12.723,12.723,0,0,0-.052,1.457l.692,32.763c0,4.163-3.365,10.147-7.517,10.147h-12.31c-4.151,0-7.517-5.984-7.517-10.147Z" transform="translate(-2.047)"/><path class="b" d="M828.734,82.79a13.681,13.681,0,0,0-.045-1.407l-.119-5.529c-.3-3.6.463-8.208,2.786-10.761,2-2.194,5.1-2.534,8.147-2.534h1.318c3.046,0,6.151.34,8.147,2.534,2.322,2.553,3.2,7.166,2.9,10.761l-.234,5.529a13.494,13.494,0,0,0-.045,1.407l.609,31.624c0,4.018-2.963,9.795-6.618,9.795H834.743c-3.655,0-6.618-5.777-6.618-9.795Z" transform="translate(-4.567 -1.711)"/><g transform="translate(820.595 80.189)"><path class="c" d="M823.558,113.268v1.311l-2.938.723S820.123,113.268,823.558,113.268Z" transform="translate(-820.595 -113.268)"/><path class="c" d="M891.515,113.268v1.311l2.938.723S894.95,113.268,891.515,113.268Z" transform="translate(-864.478 -113.268)"/></g><g transform="translate(823.367 60.848)"><path class="d" d="M834.426,62.559a8.072,8.072,0,0,0-5.967,4.877,9.553,9.553,0,0,0-.819,2.438A43.436,43.436,0,0,0,834.426,62.559Z" transform="translate(-827.639 -62.559)"/><path class="e" d="M829.311,128.835l.3.074v-7.59c0-3.791-1.808-10.788-1.808-10.788s-.359,11.869-.008,17.882C828.282,128.588,828.808,128.708,829.311,128.835Z" transform="translate(-827.638 -92.434)"/><path class="e" d="M828.162,157.964a51.583,51.583,0,0,0,1.764,10.056v-9.643C829.335,158.248,828.749,158.106,828.162,157.964Z" transform="translate(-827.956 -121.731)"/><path class="f" d="M834.356,211.9a24.332,24.332,0,0,1-4.294-6.515,10.992,10.992,0,0,0,.115,2.974,6.768,6.768,0,0,0,2.516,2.886,15.577,15.577,0,0,0,2.053,1.125A4.639,4.639,0,0,0,834.356,211.9Z" transform="translate(-829.077 -151.035)"/><path class="d" d="M875.54,62.559a8.073,8.073,0,0,1,5.968,4.877,9.551,9.551,0,0,1,.819,2.438A43.439,43.439,0,0,1,875.54,62.559Z" transform="translate(-857.56 -62.559)"/><path class="e" d="M850.611,94.941a34.6,34.6,0,0,0-17.721,0,3.558,3.558,0,0,0-2.34,4.028l1.733,9.2a.654.654,0,0,0,.646.535c4.464-.026,8.822-.35,8.822-.35s4.357.324,8.822.35a.655.655,0,0,0,.646-.535l1.733-9.2A3.559,3.559,0,0,0,850.611,94.941Z" transform="translate(-829.367 -81.97)"/><path class="f" d="M877.985,211.9a24.334,24.334,0,0,0,4.294-6.515,10.979,10.979,0,0,1-.115,2.974,6.764,6.764,0,0,1-2.515,2.886,15.6,15.6,0,0,1-2.053,1.125A4.621,4.621,0,0,1,877.985,211.9Z" transform="translate(-858.807 -151.035)"/><path class="e" d="M888.08,128.835l-.3.074v-7.59c0-3.791,1.808-10.788,1.808-10.788s.359,11.869.009,17.882C889.109,128.588,888.583,128.708,888.08,128.835Z" transform="translate(-864.986 -92.434)"/><path class="e" d="M889.547,157.964a51.581,51.581,0,0,1-1.764,10.056v-9.643C888.374,158.248,888.96,158.106,889.547,157.964Z" transform="translate(-864.986 -121.731)"/></g><path class="e" d="M853.03,185.05a19.618,19.618,0,0,1-16.551,0,27.521,27.521,0,0,0-1.034,6.217,1.621,1.621,0,0,0,.85,1.552,18.384,18.384,0,0,0,16.92,0,1.622,1.622,0,0,0,.85-1.552A27.528,27.528,0,0,0,853.03,185.05Z" transform="translate(-9.004 -77.853)"/></g></svg>