<svg xmlns="http://www.w3.org/2000/svg" width="25.005" height="22.587" viewBox="0 0 25.005 22.587"><defs><style>.a{fill:#30AB5B;}</style></defs><g transform="translate(0 -14.35)"><path class="a" d="M6.51,25.644l1.856-4.109a.674.674,0,0,1,1.248.049l2.965,8.223,2.778-6.024a.674.674,0,0,1,1.108-.173l1.863,2.034h5.692a9.276,9.276,0,0,0,.693-6.422,6.718,6.718,0,0,0-6.442-4.871A7.162,7.162,0,0,0,17,14.465a5.969,5.969,0,0,0-4.038,2.63,6.578,6.578,0,0,0-.463.835,6.578,6.578,0,0,0-.463-.835A5.969,5.969,0,0,0,8,14.465a7.162,7.162,0,0,0-1.267-.115A6.718,6.718,0,0,0,.292,19.221a9.277,9.277,0,0,0,.693,6.422H6.51Z" transform="translate(0)"/><path class="a" d="M36.279,127.631a.673.673,0,0,1-.5-.219L34.4,125.907l-3.042,6.6a.674.674,0,0,1-.612.391H30.72a.674.674,0,0,1-.6-.444l-2.959-8.205-1.351,2.991a.674.674,0,0,1-.614.4H19.925c1.92,3.305,5.437,6.614,10.461,9.84a.673.673,0,0,0,.728,0c5.024-3.226,8.54-6.535,10.461-9.84Z" transform="translate(-18.247 -100.64)"/></g></svg>